<svg width="270" height="270" viewBox="0 0 270 270" fill="none" xmlns="http://www.w3.org/2000/svg">
<g id="smile-text-parent">
<g id="Group 1">
<path id="mouth" d="M165.993 166.815C161.881 170.914 157.024 174.19 151.683 176.468C142.068 180.527 131.34 181.12 121.336 178.144C111.332 175.168 102.673 168.81 96.8392 160.155L78.1867 172.744C83.0516 179.923 89.2409 186.108 96.4229 190.969C103.732 195.911 111.943 199.363 120.588 201.128C129.552 202.956 138.793 202.956 147.757 201.128C156.401 199.361 164.612 195.909 171.922 190.969C175.443 188.584 178.807 185.816 181.889 182.745C184.949 179.696 187.739 176.321 190.147 172.744L171.494 160.155C169.877 162.546 168.035 164.776 165.993 166.815V166.815Z" fill="white"/>
<path id="left-eye" d="M94.7917 135C104.111 135 111.667 127.445 111.667 118.125C111.667 108.805 104.111 101.25 94.7917 101.25C85.4719 101.25 77.9167 108.805 77.9167 118.125C77.9167 127.445 85.4719 135 94.7917 135Z" fill="white"/>
<path id="right-eye" d="M173.463 134.842C182.739 134.842 190.259 127.323 190.259 118.046C190.259 108.77 182.739 101.25 173.463 101.25C164.187 101.25 156.667 108.77 156.667 118.046C156.667 127.323 164.187 134.842 173.463 134.842Z" fill="white"/>
<path id="head" d="M134.167 22.5C72.1342 22.5 21.6667 72.9675 21.6667 135C21.6667 197.032 72.1342 247.5 134.167 247.5C196.199 247.5 246.667 197.032 246.667 135C246.667 72.9675 196.199 22.5 134.167 22.5ZM134.167 225C84.5429 225 44.1667 184.624 44.1667 135C44.1667 85.3763 84.5429 45 134.167 45C183.79 45 224.167 85.3763 224.167 135C224.167 184.624 183.79 225 134.167 225Z" fill="white"/>
</g>
</g>
</svg>
